<?xml version="1.0"?>
<!-- Generated by SVGo and Plotinum VG -->
<svg width="4in" height="4in"
	xmlns="http://www.w3.org/2000/svg" 
	xmlns:xlink="http://www.w3.org/1999/xlink">
<g transform="scale(1, -1) translate(0, -360)">
<path d="M0,0L360,0L360,360L0,360Z" style="fill:#FFFFFF" />
<text x="29.688" y="-0.95" transform="scale(1, -1)"
	style="font-family:Times;font-weight:normal;font-style:normal;font-size:10pt">0</text>
<text x="93.335" y="-0.95" transform="scale(1, -1)"
	style="font-family:Times;font-weight:normal;font-style:normal;font-size:10pt">10</text>
<text x="160.11" y="-0.95" transform="scale(1, -1)"
	style="font-family:Times;font-weight:normal;font-style:normal;font-size:10pt">20</text>
<text x="226.88" y="-0.95" transform="scale(1, -1)"
	style="font-family:Times;font-weight:normal;font-style:normal;font-size:10pt">30</text>
<text x="293.65" y="-0.95" transform="scale(1, -1)"
	style="font-family:Times;font-weight:normal;font-style:normal;font-size:10pt">40</text>
<path d="M32.812,11.55L32.812,21.55" style="fill:none;stroke:#000000;stroke-width:0.625" />
<path d="M99.585,11.55L99.585,21.55" style="fill:none;stroke:#000000;stroke-width:0.625" />
<path d="M166.36,11.55L166.36,21.55" style="fill:none;stroke:#000000;stroke-width:0.625" />
<path d="M233.13,11.55L233.13,21.55" style="fill:none;stroke:#000000;stroke-width:0.625" />
<path d="M299.9,11.55L299.9,21.55" style="fill:none;stroke:#000000;stroke-width:0.625" />
<path d="M66.199,16.55L66.199,21.55" style="fill:none;stroke:#000000;stroke-width:0.625" />
<path d="M132.97,16.55L132.97,21.55" style="fill:none;stroke:#000000;stroke-width:0.625" />
<path d="M199.74,16.55L199.74,21.55" style="fill:none;stroke:#000000;stroke-width:0.625" />
<path d="M266.52,16.55L266.52,21.55" style="fill:none;stroke:#000000;stroke-width:0.625" />
<path d="M333.29,16.55L333.29,21.55" style="fill:none;stroke:#000000;stroke-width:0.625" />
<path d="M32.812,21.55L360,21.55" style="fill:none;stroke:#000000;stroke-width:0.625" />
<text x="6.25" y="-23.288" transform="scale(1, -1)"
	style="font-family:Times;font-weight:normal;font-style:normal;font-size:10pt">0</text>
<text x="6.25" y="-121.07" transform="scale(1, -1)"
	style="font-family:Times;font-weight:normal;font-style:normal;font-size:10pt">5</text>
<text x="0" y="-218.86" transform="scale(1, -1)"
	style="font-family:Times;font-weight:normal;font-style:normal;font-size:10pt">10</text>
<text x="0" y="-316.65" transform="scale(1, -1)"
	style="font-family:Times;font-weight:normal;font-style:normal;font-size:10pt">15</text>
<path d="M15.625,28.113L25.625,28.113" style="fill:none;stroke:#000000;stroke-width:0.625" />
<path d="M15.625,125.9L25.625,125.9" style="fill:none;stroke:#000000;stroke-width:0.625" />
<path d="M15.625,223.68L25.625,223.68" style="fill:none;stroke:#000000;stroke-width:0.625" />
<path d="M15.625,321.47L25.625,321.47" style="fill:none;stroke:#000000;stroke-width:0.625" />
<path d="M20.625,47.67L25.625,47.67" style="fill:none;stroke:#000000;stroke-width:0.625" />
<path d="M20.625,67.227L25.625,67.227" style="fill:none;stroke:#000000;stroke-width:0.625" />
<path d="M20.625,86.784L25.625,86.784" style="fill:none;stroke:#000000;stroke-width:0.625" />
<path d="M20.625,106.34L25.625,106.34" style="fill:none;stroke:#000000;stroke-width:0.625" />
<path d="M20.625,145.46L25.625,145.46" style="fill:none;stroke:#000000;stroke-width:0.625" />
<path d="M20.625,165.01L25.625,165.01" style="fill:none;stroke:#000000;stroke-width:0.625" />
<path d="M20.625,184.57L25.625,184.57" style="fill:none;stroke:#000000;stroke-width:0.625" />
<path d="M20.625,204.13L25.625,204.13" style="fill:none;stroke:#000000;stroke-width:0.625" />
<path d="M20.625,243.24L25.625,243.24" style="fill:none;stroke:#000000;stroke-width:0.625" />
<path d="M20.625,262.8L25.625,262.8" style="fill:none;stroke:#000000;stroke-width:0.625" />
<path d="M20.625,282.36L25.625,282.36" style="fill:none;stroke:#000000;stroke-width:0.625" />
<path d="M20.625,301.91L25.625,301.91" style="fill:none;stroke:#000000;stroke-width:0.625" />
<path d="M20.625,341.03L25.625,341.03" style="fill:none;stroke:#000000;stroke-width:0.625" />
<path d="M25.625,28.113L25.625,360" style="fill:none;stroke:#000000;stroke-width:0.625" />
<path d="M32.812,28.113L39.49,28.113L46.167,28.113L52.844,28.113L59.522,28.113L66.199,28.113L72.876,28.114L79.554,28.115L86.231,28.117L92.908,28.12L99.585,28.125L106.26,28.132L112.94,28.145L119.62,28.163L126.29,28.192L132.97,28.234L139.65,28.297L146.33,28.387L153,28.516L159.68,28.697L166.36,28.946L173.04,29.282L179.71,29.731L186.39,30.318L193.07,31.074L199.74,32.03L206.42,33.217L213.1,34.665L219.78,36.398L226.45,38.435L233.13,40.78L239.81,43.428L246.49,46.353L253.16,49.515L259.84,52.85L266.52,56.281L273.2,59.711L279.87,63.031L286.55,66.126L293.23,68.88L299.9,71.184L306.58,72.942L313.26,74.077L319.94,74.541L326.61,74.312L333.29,73.401L339.97,71.847L346.65,69.719L353.32,67.106L360,64.114" style="fill:none;stroke:#A7A7A7;stroke-width:1.25" />
<path d="M32.812,34.639L39.49,35.353L46.167,36.111L52.844,36.912L59.522,37.752L66.199,38.628L72.876,39.535L79.554,40.468L86.231,41.422L92.908,42.389L99.585,43.361L106.26,44.332L112.94,45.292L119.62,46.232L126.29,47.143L132.97,48.016L139.65,48.842L146.33,49.611L153,50.315L159.68,50.946L166.36,51.496L173.04,51.959L179.71,52.328L186.39,52.6L193.07,52.771L199.74,52.839L206.42,52.803L213.1,52.663L219.78,52.421L226.45,52.081L233.13,51.646L239.81,51.122L246.49,50.515L253.16,49.833L259.84,49.083L266.52,48.273L273.2,47.414L279.87,46.513L286.55,45.581L293.23,44.626L299.9,43.658L306.58,42.685L313.26,41.715L319.94,40.757L326.61,39.817L333.29,38.901L339.97,38.015L346.65,37.164L353.32,36.351L360,35.579" style="fill:none;stroke:#676767;stroke-width:1.25" />
<path d="M32.812,48.699L39.49,50.351L46.167,51.973L52.844,53.539L59.522,55.022L66.199,56.398L72.876,57.642L79.554,58.731L86.231,59.644L92.908,60.362L99.585,60.872L106.26,61.164L112.94,61.23L119.62,61.071L126.29,60.69L132.97,60.093L139.65,59.293L146.33,58.306L153,57.151L159.68,55.85L166.36,54.427L173.04,52.907L179.71,51.315L186.39,49.678L193.07,48.02L199.74,46.364L206.42,44.731L213.1,43.142L219.78,41.612L226.45,40.155L233.13,38.782L239.81,37.501L246.49,36.318L253.16,35.235L259.84,34.253L266.52,33.37L273.2,32.584L279.87,31.889L286.55,31.28L293.23,30.752L299.9,30.296L306.58,29.907L313.26,29.577L319.94,29.3L326.61,29.069L333.29,28.877L339.97,28.72L346.65,28.591L353.32,28.488L360,28.404" style="fill:none;stroke:#474747;stroke-width:1.25" />
<path d="M32.812,37.223L39.49,37.975L46.167,38.75L52.844,39.545L59.522,40.355L66.199,41.175L72.876,42.001L79.554,42.825L86.231,43.643L92.908,44.447L99.585,45.231L106.26,45.988L112.94,46.711L119.62,47.395L126.29,48.032L132.97,48.616L139.65,49.141L146.33,49.602L153,49.995L159.68,50.314L166.36,50.558L173.04,50.722L179.71,50.806L186.39,50.809L193.07,50.73L199.74,50.57L206.42,50.332L213.1,50.017L219.78,49.628L226.45,49.171L233.13,48.65L239.81,48.069L246.49,47.436L253.16,46.755L259.84,46.034L266.52,45.278L273.2,44.496L279.87,43.693L286.55,42.876L293.23,42.052L299.9,41.226L306.58,40.405L313.26,39.594L319.94,38.798L326.61,38.022L333.29,37.269L339.97,36.543L346.65,35.846L353.32,35.182L360,34.551" style="fill:none;stroke:#AFAFAF;stroke-width:1.25" />
<path d="M32.812,28.113L39.49,28.113L46.167,28.113L52.844,28.113L59.522,28.113L66.199,28.113L72.876,28.113L79.554,28.113L86.231,28.113L92.908,28.113L99.585,28.113L106.26,28.113L112.94,28.113L119.62,28.113L126.29,28.113L132.97,28.113L139.65,28.113L146.33,28.113L153,28.113L159.68,28.113L166.36,28.113L173.04,28.113L179.71,28.113L186.39,28.113L193.07,28.113L199.74,28.113L206.42,28.113L213.1,28.113L219.78,28.113L226.45,28.113L233.13,28.113L239.81,28.113L246.49,28.113L253.16,28.113L259.84,28.113L266.52,28.113L273.2,28.113L279.87,28.114L286.55,28.207L293.23,30.671L299.9,58.146L306.58,180.14L313.26,360L319.94,340.59L326.61,154.99L333.29,50.331L339.97,29.791L346.65,28.167L353.32,28.113L360,28.113" style="fill:none;stroke:#979797;stroke-width:1.25" />
<path d="M32.812,137.43L39.49,88.75L46.167,55.021L52.844,37.665L59.522,30.826L66.199,28.729L72.876,28.225L79.554,28.129L86.231,28.114L92.908,28.113L99.585,28.113L106.26,28.113L112.94,28.113L119.62,28.113L126.29,28.113L132.97,28.113L139.65,28.113L146.33,28.113L153,28.113L159.68,28.113L166.36,28.113L173.04,28.113L179.71,28.113L186.39,28.113L193.07,28.113L199.74,28.113L206.42,28.113L213.1,28.113L219.78,28.113L226.45,28.113L233.13,28.113L239.81,28.113L246.49,28.113L253.16,28.113L259.84,28.113L266.52,28.113L273.2,28.113L279.87,28.113L286.55,28.113L293.23,28.113L299.9,28.113L306.58,28.113L313.26,28.113L319.94,28.113L326.61,28.113L333.29,28.113L339.97,28.113L346.65,28.113L353.32,28.113L360,28.113" style="fill:none;stroke:#9F9F9F;stroke-width:1.25" />
<path d="M32.812,68.127L39.49,61.248L46.167,54.771L52.844,48.95L59.522,43.937L66.199,39.788L72.876,36.482L79.554,33.942L86.231,32.057L92.908,30.706L99.585,29.769L106.26,29.14L112.94,28.732L119.62,28.475L126.29,28.319L132.97,28.227L139.65,28.174L146.33,28.145L153,28.129L159.68,28.12L166.36,28.116L173.04,28.114L179.71,28.113L186.39,28.113L193.07,28.113L199.74,28.113L206.42,28.113L213.1,28.113L219.78,28.113L226.45,28.113L233.13,28.113L239.81,28.113L246.49,28.113L253.16,28.113L259.84,28.113L266.52,28.113L273.2,28.113L279.87,28.113L286.55,28.113L293.23,28.113L299.9,28.113L306.58,28.113L313.26,28.113L319.94,28.113L326.61,28.113L333.29,28.113L339.97,28.113L346.65,28.113L353.32,28.113L360,28.113" style="fill:none;stroke:#000000;stroke-width:1.25" />
<path d="M32.812,86.499L39.49,78.073L46.167,69.206L52.844,60.602L59.522,52.804L66.199,46.15L72.876,40.778L79.554,36.661L86.231,33.659L92.908,31.572L99.585,30.186L106.26,29.307L112.94,28.774L119.62,28.465L126.29,28.293L132.97,28.201L139.65,28.154L146.33,28.132L153,28.121L159.68,28.116L166.36,28.114L173.04,28.113L179.71,28.113L186.39,28.113L193.07,28.113L199.74,28.113L206.42,28.113L213.1,28.113L219.78,28.113L226.45,28.113L233.13,28.113L239.81,28.113L246.49,28.113L253.16,28.113L259.84,28.113L266.52,28.113L273.2,28.113L279.87,28.113L286.55,28.113L293.23,28.113L299.9,28.113L306.58,28.113L313.26,28.113L319.94,28.113L326.61,28.113L333.29,28.113L339.97,28.113L346.65,28.113L353.32,28.113L360,28.113" style="fill:none;stroke:#CFCFCF;stroke-width:1.25" />
<path d="M32.812,37.439L39.49,35.99L46.167,34.703L52.844,33.573L59.522,32.594L66.199,31.755L72.876,31.045L79.554,30.451L86.231,29.959L92.908,29.557L99.585,29.231L106.26,28.971L112.94,28.765L119.62,28.604L126.29,28.479L132.97,28.383L139.65,28.31L146.33,28.256L153,28.215L159.68,28.186L166.36,28.164L173.04,28.148L179.71,28.137L186.39,28.129L193.07,28.124L199.74,28.12L206.42,28.118L213.1,28.116L219.78,28.115L226.45,28.114L233.13,28.113L239.81,28.113L246.49,28.113L253.16,28.113L259.84,28.113L266.52,28.113L273.2,28.113L279.87,28.113L286.55,28.113L293.23,28.113L299.9,28.113L306.58,28.113L313.26,28.113L319.94,28.113L326.61,28.113L333.29,28.113L339.97,28.113L346.65,28.113L353.32,28.113L360,28.113" style="fill:none;stroke:#3F3F3F;stroke-width:1.25" />
<path d="M32.812,52.149L39.49,51.211L46.167,50.197L52.844,49.122L59.522,47.999L66.199,46.841L72.876,45.661L79.554,44.473L86.231,43.289L92.908,42.119L99.585,40.975L106.26,39.864L112.94,38.796L119.62,37.775L126.29,36.808L132.97,35.899L139.65,35.049L146.33,34.261L153,33.535L159.68,32.871L166.36,32.267L173.04,31.721L179.71,31.232L186.39,30.795L193.07,30.408L199.74,30.066L206.42,29.767L213.1,29.507L219.78,29.282L226.45,29.088L233.13,28.922L239.81,28.781L246.49,28.662L253.16,28.562L259.84,28.478L266.52,28.408L273.2,28.351L279.87,28.303L286.55,28.265L293.23,28.233L299.9,28.208L306.58,28.187L313.26,28.171L319.94,28.158L326.61,28.148L333.29,28.14L339.97,28.133L346.65,28.128L353.32,28.124L360,28.122" style="fill:none;stroke:#BFBFBF;stroke-width:1.25" />
<path d="M32.812,28.113L39.49,28.113L46.167,28.113L52.844,28.113L59.522,28.113L66.199,28.113L72.876,28.113L79.554,28.113L86.231,28.113L92.908,28.113L99.585,28.113L106.26,28.113L112.94,28.113L119.62,28.113L126.29,28.113L132.97,28.114L139.65,28.117L146.33,28.123L153,28.138L159.68,28.173L166.36,28.248L173.04,28.403L179.71,28.705L186.39,29.265L193.07,30.248L199.74,31.885L206.42,34.464L213.1,38.307L219.78,43.71L226.45,50.86L233.13,59.736L239.81,70.018L246.49,81.046L253.16,91.848L259.84,101.26L266.52,108.14L273.2,111.58L279.87,111.08L286.55,106.73L293.23,99.129L299.9,89.258L306.58,78.297L313.26,67.374L319.94,57.391L326.61,48.926L333.29,42.216L339.97,37.222L346.65,33.721L353.32,31.404L360,29.954" style="fill:none;stroke:#1F1F1F;stroke-width:1.25" />
<path d="M32.812,31.668L39.49,32.535L46.167,33.556L52.844,34.742L59.522,36.102L66.199,37.638L72.876,39.351L79.554,41.231L86.231,43.265L92.908,45.43L99.585,47.696L106.26,50.024L112.94,52.371L119.62,54.687L126.29,56.916L132.97,59.004L139.65,60.894L146.33,62.533L153,63.873L159.68,64.874L166.36,65.505L173.04,65.746L179.71,65.589L186.39,65.039L193.07,64.115L199.74,62.843L206.42,61.263L213.1,59.422L219.78,57.372L226.45,55.167L233.13,52.865L239.81,50.521L246.49,48.184L253.16,45.902L259.84,43.713L266.52,41.649L273.2,39.735L279.87,37.986L286.55,36.412L293.23,35.015L299.9,33.793L306.58,32.738L313.26,31.839L319.94,31.084L326.61,30.456L333.29,29.942L339.97,29.525L346.65,29.192L353.32,28.929L360,28.723" style="fill:none;stroke:#6F6F6F;stroke-width:1.25" />
<path d="M32.812,28.113L39.49,28.113L46.167,28.113L52.844,28.113L59.522,28.113L66.199,28.113L72.876,28.113L79.554,28.115L86.231,28.122L92.908,28.142L99.585,28.197L106.26,28.339L112.94,28.675L119.62,29.412L126.29,30.904L132.97,33.684L139.65,38.448L146.33,45.934L153,56.673L159.68,70.654L166.36,87.009L173.04,103.9L179.71,118.75L186.39,128.87L193.07,132.21L199.74,128.08L206.42,117.34L213.1,102.14L219.78,85.189L226.45,69.018L233.13,55.36L239.81,44.982L246.49,37.82L253.16,33.304L259.84,30.693L266.52,29.305L273.2,28.625L279.87,28.317L286.55,28.188L293.23,28.139L299.9,28.121L306.58,28.115L313.26,28.113L319.94,28.113L326.61,28.113L333.29,28.113L339.97,28.113L346.65,28.113L353.32,28.113L360,28.113" style="fill:none;stroke:#8F8F8F;stroke-width:1.25" />
<path d="M32.812,49.656L39.49,49.375L46.167,49.023L52.844,48.602L59.522,48.118L66.199,47.576L72.876,46.98L79.554,46.337L86.231,45.653L92.908,44.934L99.585,44.187L106.26,43.417L112.94,42.633L119.62,41.839L126.29,41.042L132.97,40.248L139.65,39.461L146.33,38.688L153,37.932L159.68,37.197L166.36,36.487L173.04,35.805L179.71,35.153L186.39,34.534L193.07,33.947L199.74,33.396L206.42,32.879L213.1,32.398L219.78,31.951L226.45,31.538L233.13,31.159L239.81,30.812L246.49,30.496L253.16,30.21L259.84,29.951L266.52,29.719L273.2,29.51L279.87,29.325L286.55,29.16L293.23,29.015L299.9,28.887L306.58,28.774L313.26,28.676L319.94,28.591L326.61,28.517L333.29,28.453L339.97,28.399L346.65,28.352L353.32,28.312L360,28.278" style="fill:none;stroke:#C7C7C7;stroke-width:1.25" />
<path d="M32.812,35.148L39.49,35.508L46.167,35.874L52.844,36.245L59.522,36.621L66.199,36.999L72.876,37.379L79.554,37.76L86.231,38.141L92.908,38.521L99.585,38.897L106.26,39.269L112.94,39.635L119.62,39.995L126.29,40.346L132.97,40.687L139.65,41.018L146.33,41.335L153,41.639L159.68,41.928L166.36,42.201L173.04,42.456L179.71,42.692L186.39,42.908L193.07,43.104L199.74,43.278L206.42,43.43L213.1,43.558L219.78,43.662L226.45,43.743L233.13,43.798L239.81,43.829L246.49,43.834L253.16,43.814L259.84,43.77L266.52,43.7L273.2,43.606L279.87,43.488L286.55,43.347L293.23,43.183L299.9,42.996L306.58,42.789L313.26,42.561L319.94,42.314L326.61,42.049L333.29,41.767L339.97,41.47L346.65,41.158L353.32,40.833L360,40.496" style="fill:none;stroke:#5F5F5F;stroke-width:1.25" />
<path d="M32.812,28.113L39.49,28.113L46.167,28.113L52.844,28.113L59.522,28.113L66.199,28.113L72.876,28.113L79.554,28.113L86.231,28.113L92.908,28.113L99.585,28.114L106.26,28.118L112.94,28.128L119.62,28.155L126.29,28.222L132.97,28.377L139.65,28.713L146.33,29.395L153,30.689L159.68,32.981L166.36,36.764L173.04,42.575L179.71,50.852L186.39,61.743L193.07,74.898L199.74,89.333L206.42,103.47L213.1,115.35L219.78,123.12L226.45,125.43L233.13,121.87L239.81,113.09L246.49,100.55L253.16,86.198L259.84,71.922L266.52,59.193L273.2,48.853L279.87,41.131L286.55,35.799L293.23,32.381L299.9,30.342L306.58,29.208L313.26,28.619L319.94,28.333L326.61,28.203L333.29,28.147L339.97,28.125L346.65,28.117L353.32,28.114L360,28.113" style="fill:none;stroke:#272727;stroke-width:1.25" />
<path d="M32.812,39.665L39.49,38.49L46.167,37.38L52.844,36.341L59.522,35.375L66.199,34.485L72.876,33.672L79.554,32.934L86.231,32.269L92.908,31.676L99.585,31.149L106.26,30.685L112.94,30.279L119.62,29.926L126.29,29.622L132.97,29.362L139.65,29.14L146.33,28.953L153,28.796L159.68,28.665L166.36,28.557L173.04,28.467L179.71,28.394L186.39,28.335L193.07,28.287L199.74,28.249L206.42,28.218L213.1,28.194L219.78,28.175L226.45,28.16L233.13,28.149L239.81,28.14L246.49,28.133L253.16,28.128L259.84,28.124L266.52,28.121L273.2,28.119L279.87,28.117L286.55,28.116L293.23,28.115L299.9,28.114L306.58,28.114L313.26,28.113L319.94,28.113L326.61,28.113L333.29,28.113L339.97,28.113L346.65,28.113L353.32,28.113L360,28.113" style="fill:none;stroke:#575757;stroke-width:1.25" />
<path d="M32.812,28.115L39.49,28.116L46.167,28.117L52.844,28.119L59.522,28.122L66.199,28.125L72.876,28.129L79.554,28.135L86.231,28.142L92.908,28.151L99.585,28.163L106.26,28.179L112.94,28.199L119.62,28.224L126.29,28.255L132.97,28.295L139.65,28.344L146.33,28.404L153,28.479L159.68,28.569L166.36,28.679L173.04,28.811L179.71,28.97L186.39,29.158L193.07,29.38L199.74,29.64L206.42,29.944L213.1,30.296L219.78,30.7L226.45,31.162L233.13,31.686L239.81,32.276L246.49,32.936L253.16,33.669L259.84,34.477L266.52,35.362L273.2,36.322L279.87,37.357L286.55,38.463L293.23,39.636L299.9,40.869L306.58,42.153L313.26,43.48L319.94,44.836L326.61,46.208L333.29,47.583L339.97,48.942L346.65,50.27L353.32,51.55L360,52.762" style="fill:none;stroke:#D7D7D7;stroke-width:1.25" />
<path d="M32.812,34.648L39.49,35.048L46.167,35.458L52.844,35.876L59.522,36.302L66.199,36.734L72.876,37.171L79.554,37.61L86.231,38.051L92.908,38.492L99.585,38.931L106.26,39.366L112.94,39.794L119.62,40.215L126.29,40.626L132.97,41.025L139.65,41.411L146.33,41.78L153,42.131L159.68,42.463L166.36,42.774L173.04,43.061L179.71,43.323L186.39,43.559L193.07,43.767L199.74,43.946L206.42,44.096L213.1,44.214L219.78,44.301L226.45,44.356L233.13,44.379L239.81,44.369L246.49,44.326L253.16,44.252L259.84,44.145L266.52,44.008L273.2,43.84L279.87,43.643L286.55,43.417L293.23,43.165L299.9,42.888L306.58,42.586L313.26,42.262L319.94,41.918L326.61,41.556L333.29,41.176L339.97,40.782L346.65,40.376L353.32,39.959L360,39.533" style="fill:none;stroke:#878787;stroke-width:1.25" />
<path d="M32.812,28.113L39.49,28.113L46.167,28.113L52.844,28.113L59.522,28.113L66.199,28.113L72.876,28.113L79.554,28.113L86.231,28.113L92.908,28.113L99.585,28.113L106.26,28.113L112.94,28.113L119.62,28.113L126.29,28.113L132.97,28.113L139.65,28.113L146.33,28.113L153,28.113L159.68,28.113L166.36,28.113L173.04,28.113L179.71,28.113L186.39,28.113L193.07,28.113L199.74,28.113L206.42,28.113L213.1,28.113L219.78,28.115L226.45,28.118L233.13,28.125L239.81,28.139L246.49,28.169L253.16,28.228L259.84,28.339L266.52,28.541L273.2,28.892L279.87,29.48L286.55,30.423L293.23,31.871L299.9,34.004L306.58,37.009L313.26,41.052L319.94,46.241L326.61,52.58L333.29,59.922L339.97,67.949L346.65,76.17L353.32,83.958L360,90.627" style="fill:none;stroke:#070707;stroke-width:1.25" />
</g>
</svg>

